<svg xmlns="http://www.w3.org/2000/svg">
  <symbol id="logo" width="107" height="19" viewBox="0 0 107 19">
    <g>
      <path
        d="M0.7 18H6.1V8.92H6.6L12.32 18H18.54V1.2H13.14V10.28H12.64L7.06 1.2H0.7V18ZM19.9422 18H25.4822V12.1H34.6222V8.1H25.4822V5.82H35.0422V1.2H19.9422V18ZM53.9622 1.2H36.3422V5.82H42.3822V18H47.9222V5.82H53.9622V1.2ZM55.2625 18H70.4025V13.56H60.8025V11.42H70.0425V7.78H60.8025V5.64H70.4025V1.2H55.2625V18ZM89.2694 18L86.2694 12.48C87.6894 11.48 88.7094 9.88 88.7094 7.62C88.7094 3.2 86.0894 1.2 81.4294 1.2H71.8094V18H77.3494V13.66H81.5494L83.8294 18H89.2694ZM77.3494 5.8H81.0494C82.4494 5.8 83.1694 6.48 83.1694 7.66C83.1694 8.84 82.4494 9.52 81.0494 9.52H77.3494V5.8ZM97.7625 18.56C103.523 18.58 106.363 16.76 106.363 13.1C106.363 8.5 101.783 8.4 98.4425 7.84L96.6625 7.54C95.3825 7.34 95.0825 6.76 95.0825 6.28C95.0825 5.52 95.8425 4.96 97.6825 4.96C99.8025 4.96 100.743 5.66 100.943 6.78H105.882C105.983 1.98 102.622 0.639999 97.8025 0.639999C92.4625 0.639999 89.7625 2.68 89.7625 6C89.7625 10.3 93.5825 10.68 96.7625 11.2L98.9225 11.54C100.563 11.78 100.863 12.34 100.863 12.88C100.863 13.66 99.8825 14.26 97.7625 14.24C95.3625 14.22 94.4025 13.52 94.3425 12.38H89.3625C89.2225 16.74 91.9625 18.54 97.7625 18.56Z" />
    </g>
  </symbol>

  <symbol id="search" width="24" height="24" viewBox="0 0 24 24">
    <g>
      <path
        d="M11.5 21.75C5.85 21.75 1.25 17.15 1.25 11.5C1.25 5.85 5.85 1.25 11.5 1.25C17.15 1.25 21.75 5.85 21.75 11.5C21.75 17.15 17.15 21.75 11.5 21.75ZM11.5 2.75C6.67 2.75 2.75 6.68 2.75 11.5C2.75 16.32 6.67 20.25 11.5 20.25C16.33 20.25 20.25 16.32 20.25 11.5C20.25 6.68 16.33 2.75 11.5 2.75Z" />
      <path
        d="M22.0004 22.7499C21.8104 22.7499 21.6204 22.6799 21.4704 22.5299L19.4704 20.5299C19.1804 20.2399 19.1804 19.7599 19.4704 19.4699C19.7604 19.1799 20.2404 19.1799 20.5304 19.4699L22.5304 21.4699C22.8204 21.7599 22.8204 22.2399 22.5304 22.5299C22.3804 22.6799 22.1904 22.7499 22.0004 22.7499Z" />
    </g>
  </symbol>

  <symbol id='facebook' width="36" height="36" viewBox="0 0 36 36" fill="none">
  <g clip-path="url(#clip0_0_413)">
    <path d="M18 36C27.9411 36 36 27.9411 36 18C36 8.05888 27.9411 0 18 0C8.05888 0 0 8.05888 0 18C0 27.9411 8.05888 36 18 36Z" fill="#3B5998" />
    <path d="M22.5252 18.7045H19.3133V30.4713H14.447V18.7045H12.1326V14.5692H14.447V11.8931C14.447 9.97949 15.3561 6.98291 19.3566 6.98291L22.9613 6.99799V11.012H20.3459C19.9169 11.012 19.3136 11.2264 19.3136 12.1392V14.573H22.9503L22.5252 18.7045Z" fill="white" />
  </g>
  <defs>
    <clipPath id="clip0_0_413">
      <rect width="36" height="36" fill="white" />
    </clipPath>
  </defs>
</symbol>

<symbol id="twitter" width="36" height="36" viewBox="0 0 36 36" fill="none">
  <g clip-path="url(#clip0_0_417)">
    <path d="M18.0002 35.9997C27.9412 35.9997 36 27.9409 36 17.9998C36 8.0588 27.9412 0 18.0002 0C8.05917 0 0.000366211 8.0588 0.000366211 17.9998C0.000366211 27.9409 8.05917 35.9997 18.0002 35.9997Z" fill="#55ACEE" />
    <path d="M29.0257 12.9361C28.2543 13.2781 27.4246 13.5094 26.5544 13.6128C27.4428 13.0804 28.1247 12.2382 28.4465 11.2329C27.6151 11.7261 26.6939 12.0838 25.7143 12.2767C24.9295 11.4408 23.8113 10.9185 22.5731 10.9185C20.1974 10.9185 18.2706 12.8452 18.2706 15.2209C18.2706 15.5582 18.3088 15.8864 18.3826 16.2015C14.8069 16.0221 11.6364 14.3093 9.51424 11.7055C9.14396 12.3408 8.93155 13.0804 8.93155 13.8688C8.93155 15.3611 9.69167 16.6786 10.8455 17.45C10.1406 17.4278 9.4767 17.2343 8.89689 16.9112C8.89657 16.9295 8.89657 16.9478 8.89657 16.9658C8.89657 19.0504 10.3803 20.7892 12.3481 21.1842C11.9875 21.283 11.6066 21.3353 11.2148 21.3353C10.9369 21.3353 10.6677 21.3087 10.4053 21.2586C10.9527 22.9675 12.5413 24.2115 14.4244 24.2465C12.9517 25.4007 11.0967 26.0883 9.08043 26.0883C8.7339 26.0883 8.39057 26.0681 8.05463 26.0279C9.95767 27.2492 12.2198 27.9612 14.6493 27.9612C22.5631 27.9612 26.891 21.4053 26.891 15.7192C26.891 15.5328 26.8868 15.347 26.8784 15.1628C27.7198 14.5564 28.4491 13.7989 29.0257 12.9361Z" fill="#F1F2F2" />
  </g>
  <defs>
    <clipPath id="clip0_0_417">
      <rect width="36" height="36" fill="white" />
    </clipPath>
  </defs>
</symbol>

<symbol id="linkedin" width="36" height="36" viewBox="0 0 36 36" fill="none">
  <g clip-path="url(#clip0_0_422)">
    <path d="M18 35.9998C27.9411 35.9998 36 27.9409 36 17.9998C36 8.05863 27.9411 -0.000244141 18 -0.000244141C8.05884 -0.000244141 -3.05176e-05 8.05863 -3.05176e-05 17.9998C-3.05176e-05 27.9409 8.05884 35.9998 18 35.9998Z" fill="#007AB9" />
    <path d="M28.7548 19.4481V26.8691H24.4523V19.9455C24.4523 18.207 23.8311 17.0198 22.2733 17.0198C21.0845 17.0198 20.3783 17.8191 20.0664 18.593C19.9531 18.8696 19.9239 19.2537 19.9239 19.6416V26.8688H15.6211C15.6211 26.8688 15.6788 15.1424 15.6211 13.9286H19.9242V15.7623C19.9156 15.7768 19.9034 15.7909 19.8957 15.8047H19.9242V15.7623C20.496 14.8825 21.5157 13.6247 23.8019 13.6247C26.6326 13.6247 28.7548 15.4742 28.7548 19.4481ZM11.12 7.69092C9.64813 7.69092 8.68521 8.65705 8.68521 9.9264C8.68521 11.1688 9.62022 12.1628 11.0635 12.1628H11.0914C12.5921 12.1628 13.5252 11.1688 13.5252 9.9264C13.4966 8.65705 12.5921 7.69092 11.12 7.69092ZM8.94094 26.8691H13.2422V13.9286H8.94094V26.8691Z" fill="#F1F2F2" />
  </g>
  <defs>
    <clipPath id="clip0_0_422">
      <rect width="36" height="36" fill="white" />
    </clipPath>
  </defs>
</symbol>

  <symbol id='advantages-decor-img' width="36" height="36" viewBox="0 0 36 36" fill="none">
    <g>
      <path
        d="M20.25 13.875H3C2.385 13.875 1.875 13.365 1.875 12.75C1.875 12.135 2.385 11.625 3 11.625H20.25C20.865 11.625 21.375 12.135 21.375 12.75C21.375 13.365 20.865 13.875 20.25 13.875Z"
        fill="black" />
      <path
        d="M12 25.875H9C8.385 25.875 7.875 25.365 7.875 24.75C7.875 24.135 8.385 23.625 9 23.625H12C12.615 23.625 13.125 24.135 13.125 24.75C13.125 25.365 12.615 25.875 12 25.875Z"
        fill="black" />
      <path
        d="M21.75 25.875H15.75C15.135 25.875 14.625 25.365 14.625 24.75C14.625 24.135 15.135 23.625 15.75 23.625H21.75C22.365 23.625 22.875 24.135 22.875 24.75C22.875 25.365 22.365 25.875 21.75 25.875Z"
        fill="black" />
      <path
        d="M26.34 31.875H9.66C3.69 31.875 1.875 30.075 1.875 24.165V11.835C1.875 5.925 3.69 4.125 9.66 4.125H20.25C20.865 4.125 21.375 4.635 21.375 5.25C21.375 5.865 20.865 6.375 20.25 6.375H9.66C4.95 6.375 4.125 7.185 4.125 11.835V24.15C4.125 28.8 4.95 29.61 9.66 29.61H26.325C31.035 29.61 31.86 28.8 31.86 24.15V16.53C31.86 15.915 32.37 15.405 32.985 15.405C33.6 15.405 34.11 15.915 34.11 16.53V24.15C34.125 30.075 32.31 31.875 26.34 31.875Z"
        fill="black" />
      <path
        d="M26.9992 12.3756C26.7142 12.3756 26.4292 12.2706 26.2042 12.0456L23.9542 9.79564C23.5192 9.36064 23.5192 8.64064 23.9542 8.20564C24.3892 7.77064 25.1092 7.77064 25.5442 8.20564L26.9992 9.66064L32.2042 4.45564C32.6392 4.02064 33.3592 4.02064 33.7942 4.45564C34.2292 4.89064 34.2292 5.61064 33.7942 6.04564L27.7942 12.0456C27.5692 12.2706 27.2842 12.3756 26.9992 12.3756Z"
        fill="black" />
    </g>
  </symbol>

  <symbol id="advantages-decor-img2" width="36" height="36" viewBox="0 0 36 36" fill="none">
    <g>
      <path
        d="M15.1655 27.2245H9.48047C8.86547 27.2245 8.35547 26.7145 8.35547 26.0995V18.4195C8.35547 16.8595 9.63045 15.5844 11.1905 15.5844H15.1655C15.7805 15.5844 16.2905 16.0944 16.2905 16.7094V26.0844C16.2905 26.7144 15.7805 27.2245 15.1655 27.2245ZM10.6055 24.9745H14.0404V17.8495H11.1905C10.8755 17.8495 10.6055 18.1044 10.6055 18.4344V24.9745Z"
        fill="#292D32" />
      <path
        d="M20.8344 27.2245H15.1494C14.5344 27.2245 14.0244 26.7145 14.0244 26.0995V11.6094C14.0244 10.0494 15.2994 8.77441 16.8594 8.77441H19.1394C20.6994 8.77441 21.9744 10.0494 21.9744 11.6094V26.0995C21.9594 26.7145 21.4644 27.2245 20.8344 27.2245ZM16.2894 24.9745H19.7244V11.6094C19.7244 11.2944 19.4694 11.0244 19.1394 11.0244H16.8594C16.5444 11.0244 16.2744 11.2794 16.2744 11.6094V24.9745H16.2894Z"
        fill="#292D32" />
      <path
        d="M26.5209 27.2246H20.8359C20.2209 27.2246 19.7109 26.7146 19.7109 26.0996V19.2744C19.7109 18.6594 20.2209 18.1494 20.8359 18.1494H24.8109C26.3709 18.1494 27.6459 19.4244 27.6459 20.9844V26.0996C27.6459 26.7146 27.1509 27.2246 26.5209 27.2246ZM21.9609 24.9746H25.3959V20.9844C25.3959 20.6694 25.1409 20.3994 24.8109 20.3994H21.9609V24.9746Z"
        fill="#292D32" />
      <path
        d="M22.5 34.125H13.5C5.355 34.125 1.875 30.645 1.875 22.5V13.5C1.875 5.355 5.355 1.875 13.5 1.875H22.5C30.645 1.875 34.125 5.355 34.125 13.5V22.5C34.125 30.645 30.645 34.125 22.5 34.125ZM13.5 4.125C6.585 4.125 4.125 6.585 4.125 13.5V22.5C4.125 29.415 6.585 31.875 13.5 31.875H22.5C29.415 31.875 31.875 29.415 31.875 22.5V13.5C31.875 6.585 29.415 4.125 22.5 4.125H13.5Z"
        fill="#292D32" />
    </g>
  </symbol>

  <symbol id="collection-decor-img" width="13" height="22" viewBox="0 0 13 22" fill="none">
  <g clip-path="url(#clip0_0_213)">
    <path d="M12.671 11.4564L6.50004 15.3231L0.325043 11.4564L6.50004 0.589722L12.671 11.4564ZM6.50004 16.5647L0.325043 12.6981L6.50004 21.9231L12.675 12.6981L6.50004 16.5647Z" fill="#3A3A3A" />
  </g>
  <defs>
    <clipPath id="clip0_0_213">
      <rect width="13" height="21.3333" fill="white" transform="translate(0 0.589722)" />
    </clipPath>
  </defs>
</symbol>

  <symbol id='collection-decor-img2' width="9" height="14" viewBox="0 0 9 14" fill="none">
  <g clip-path="url(#clip0_0_224)">
    <path d="M8.31533 7.13126L4.26566 9.66876L0.213318 7.13126L4.26566 0L8.31533 7.13126ZM4.26566 10.4836L0.213318 7.9461L4.26566 14L8.318 7.9461L4.26566 10.4836Z" fill="#00AC4F" />
  </g>
  <defs>
    <clipPath id="clip0_0_224">
      <rect width="8.53125" height="14"/>
    </clipPath>
  </defs>
</symbol>

<symbol id="collection-decor-img3" width="15" height="24" viewBox="0 0 15 24" fill="none">
  <g clip-path="url(#clip0_0_267)">
    <path d="M14.6203 12.225L7.49994 16.575L0.374939 12.225L7.49994 0L14.6203 12.225ZM7.49994 17.9719L0.374939 13.6219L7.49994 24L14.6249 13.6219L7.49994 17.9719Z" fill="black" />
  </g>
  <defs>
    <clipPath id="clip0_0_267">
      <rect width="15" height="24"/>
    </clipPath>
  </defs>
</symbol>

<symbol id="filter-icon" width="24" height="24" viewBox="0 0 24 24" fill="none">
  <g clip-path="url(#clip0_0_399)">
    <path d="M9.33333 20H14.6667V17.3333H9.33333V20ZM0 4V6.66667H24V4H0ZM4 13.3333H20V10.6667H4V13.3333Z" fill="#371C87" />
  </g>
  <defs>
    <clipPath id="clip0_0_399">
      <rect width="24" height="24"/>
    </clipPath>
  </defs>
</symbol>

</svg>